<svg xmlns="http://www.w3.org/2000/svg" xmlns:xlink="http://www.w3.org/1999/xlink" version="1.1" x="0px" y="0px" viewBox="0 0 100 125" enable-background="new 0 0 100 100" xml:space="preserve"><g><path fill="#000000" d="M50.14,83.803c-14.009,0-26.025-9.101-29.341-22.175c-3.207-4.121-4.9-9.037-4.9-14.24   c0-12.941,10.703-23.47,23.859-23.47c3.068,0,6.054,0.565,8.879,1.682c0.349-0.017,0.698-0.029,1.05-0.035   c3.167-1.456,6.558-2.194,10.083-2.194c13.155,0,23.858,10.528,23.858,23.47c0,4.434-1.264,8.742-3.658,12.482   C77.643,73.302,64.879,83.803,50.14,83.803z M39.757,26.918c-11.501,0-20.859,9.183-20.859,20.47c0,4.625,1.539,8.992,4.449,12.628   l0.209,0.261l0.078,0.324c2.873,11.895,13.772,20.202,26.505,20.202c13.386,0,24.958-9.569,26.917-22.259l0.05-0.324l0.181-0.273   c2.186-3.312,3.341-7.152,3.341-11.105c0-11.287-9.357-20.47-20.858-20.47c-3.188,0-6.25,0.688-9.097,2.044L50.37,28.56   l-0.335,0.001c-0.525,0.002-1.045,0.021-1.562,0.051l-0.342,0.02l-0.316-0.13C45.259,27.451,42.548,26.918,39.757,26.918z"/></g><g><path fill="#000000" d="M65.444,25.723c0,0,12.216,0.547,15.315,26.163c0,0,0.729,5.561,4.376,6.655c0,0,2.324-20.608,5.973-24.542   c0.886-0.955,0.573-2.485-0.655-2.92c-0.42-0.148-0.932-0.286-1.556-0.405c-1.004-0.192-1.959-0.569-2.843-1.083   C81.763,27.1,69.203,20.461,65.444,25.723z"/></g><g><path fill="#000000" d="M33.909,26.846c0,0-12.216,0.547-15.315,26.163c0,0-0.729,5.561-4.376,6.655c0,0-2.324-20.608-5.973-24.542   c-0.886-0.955-0.573-2.485,0.655-2.92c0.42-0.148,0.932-0.286,1.556-0.405c1.004-0.192,1.959-0.569,2.843-1.083   C17.59,28.224,30.151,21.584,33.909,26.846z"/></g><g><path fill="#000000" d="M63.378,79.296c-0.69,0-1.415-0.062-2.169-0.188c-3.277-0.547-6.784-2.254-9.874-4.807   c-0.389-0.322-0.769-0.655-1.138-0.998c-0.368,0.343-0.749,0.677-1.139,0.998c-3.089,2.553-6.595,4.26-9.873,4.807   c-3.568,0.594-6.495-0.236-8.235-2.341c-3.442-4.166-0.88-11.774,5.832-17.321c4.314-3.566,9.428-5.423,13.416-4.89   c3.992-0.535,9.103,1.324,13.416,4.89h-0.001c6.713,5.547,9.274,13.155,5.832,17.32C68.072,78.428,65.962,79.296,63.378,79.296z    M50.197,69.021l1.086,1.142c0.608,0.639,1.269,1.253,1.963,1.827c2.688,2.222,5.691,3.699,8.456,4.16   c2.474,0.414,4.4-0.047,5.43-1.293c2.292-2.773-0.195-8.771-5.43-13.098h-0.001c-3.699-3.057-8.121-4.704-11.268-4.205   l-0.236,0.037l-0.236-0.037c-3.148-0.5-7.569,1.148-11.268,4.205c-5.235,4.326-7.722,10.324-5.43,13.098   c1.03,1.245,2.959,1.706,5.43,1.293c2.765-0.461,5.768-1.938,8.456-4.16c0.695-0.574,1.355-1.188,1.962-1.827L50.197,69.021z"/></g><g><ellipse fill="#000000" cx="50.197" cy="75.351" rx="3.419" ry="3.145"/></g><g><g><path fill="#000000" d="M71.493,54.501c2.089-3.484,0.959-8.002-2.525-10.091c-3.484-2.089-8.002-0.959-10.091,2.525    c-2.089,3.484-0.959,8.002,2.525,10.091C64.886,59.115,69.404,57.985,71.493,54.501z M65.155,47.203    c0.808-1.347,2.556-1.785,3.903-0.977c1.347,0.808,1.785,2.556,0.977,3.903c-0.808,1.347-2.556,1.785-3.903,0.977    C64.785,50.298,64.347,48.55,65.155,47.203z M60.443,52.278c0.474-0.791,1.5-1.048,2.291-0.573c0.791,0.474,1.048,1.5,0.573,2.291    s-1.5,1.048-2.291,0.573C60.225,54.095,59.968,53.069,60.443,52.278z"/></g></g><g><g><path fill="#000000" d="M41.311,55.243c2.089-3.484,0.959-8.002-2.525-10.091c-3.484-2.089-8.002-0.959-10.091,2.525    c-2.089,3.484-0.959,8.002,2.525,10.091S39.222,58.726,41.311,55.243z M34.974,47.944c0.808-1.347,2.556-1.785,3.903-0.977    c1.347,0.808,1.785,2.556,0.977,3.903c-0.808,1.347-2.556,1.785-3.903,0.977C34.603,51.039,34.166,49.292,34.974,47.944z     M30.261,53.02c0.474-0.791,1.5-1.048,2.291-0.573c0.791,0.474,1.048,1.5,0.573,2.291c-0.474,0.791-1.5,1.048-2.291,0.573    C30.043,54.836,29.787,53.811,30.261,53.02z"/></g></g><g><g><path fill="#000000" d="M44.857,55.2c0.024-1.601,1.375-2.878,3.016-2.853c1.188,0.018,2.199,0.714,2.661,1.703    c0.491-0.974,1.523-1.64,2.711-1.622c1.642,0.025,2.953,1.342,2.929,2.943c-0.017,1.111-0.674,2.066-1.623,2.538l-4.254,3.706    l-3.883-3.824C45.473,57.292,44.84,56.315,44.857,55.2z"/></g></g><text x="0" y="115" fill="#000000" font-size="5px" font-weight="bold" font-family="'Helvetica Neue', Helvetica, Arial-Unicode, Arial, Sans-serif">Created by Elena Rimeikaite</text><text x="0" y="120" fill="#000000" font-size="5px" font-weight="bold" font-family="'Helvetica Neue', Helvetica, Arial-Unicode, Arial, Sans-serif">from the Noun Project</text></svg>