<svg xmlns="http://www.w3.org/2000/svg" xmlns:xlink="http://www.w3.org/1999/xlink" version="1.1" x="0px" y="0px" viewBox="0 0 100 125" enable-background="new 0 0 100 100" xml:space="preserve"><g><path fill="#000000" d="M90.7,58.8c-1-2.1-2.6-4.5-5.8-5.4c0,0,0,0,0,0c0.1-0.2,0.3-0.3,0.3-0.4c4.4-6.2,2.1-12.8-6.9-20.2   c-0.9-0.7-1.8-1.4-2.8-2c-5.1-3.3-11.1-5.1-17.4-5.1c-4.7,0-9.4,1-13.2,3c0,0-0.1,0-0.1,0c-0.3-0.4-0.7-0.7-1.1-1.1   c-2.9-2.2-6.3-2.2-9.1-2.2h-0.3c-3.7,0-6.9,1.8-8.9,5c-1.8,2.7-2.7,6.5-2.7,11c0,4.6,1.8,8.4,5.2,11c0.2,0.2,0.4,0.3,0.6,0.5   c-0.2,0.2-0.4,0.4-0.6,0.6c-1.9,1.9-3,2.3-3.5,2.3c-0.7,0-1.4-0.6-2.5-1.7c-3.2-3.2-5.8-4.7-8-4.7c-1,0-1.9,0.3-2.8,1   c-1.6,1.3-2.5,3.2-2.5,5.4c-0.1,3.7,2.4,7.8,6.8,11.5c3.1,2.6,6.7,3.9,10.9,3.9c4.7,0,8.9-1.7,10.4-2.8c3.2-2.3,5.1-6.1,6.3-9.5   c1.3,0.4,4.4,1,9.5,1.2c0.5,1.4,1.4,2.5,1.8,2.9c0.7,0.8,8.4,10.8,13.1,17c1.2,1.6,4.3,5.2,8,5.2c1.3,0,2.4-0.4,3.5-1.3   c2.4-2,2.4-10.1-1-16.7c-1.9-3.7-3.8-6.4-5.9-8.3c0.5-0.1,1.1-0.1,1.6-0.2c0.8,0.9,2.4,2.1,5.4,3.7c1.3,0.7,5.8,3.1,8.4,3.3h0.2   c1.3,0,2.5-0.7,3.2-1.7C91.5,62.2,91.5,60.5,90.7,58.8z M87.9,61.9c-0.1,0.2-0.3,0.3-0.5,0.3h-0.1c-2-0.1-6.9-2.7-9.7-4.5h0   c-0.3-0.2-0.6-0.4-0.9-0.6c2-0.5,3.7-0.8,5.1-0.8c0.6,0,1.2,0,1.7,0.2c1.9,0.4,3.1,1.5,4.2,3.8C88.2,61,88.1,61.6,87.9,61.9z    M75,68.2c3,5.9,2.5,12,1.8,12.9c-0.4,0.4-0.9,0.5-1.4,0.5c-1.5,0-3.6-1.5-5.4-3.9C67.8,75,57.5,61.3,56.6,60.4   c-0.1-0.1-0.3-0.3-0.5-0.6c-0.5-0.7-0.9-1.8-0.7-2.3c0.1-0.1,0.3-0.3,0.7-0.4h0C56.5,57,57,57,57.6,57c0.3,0,0.6,0,1,0   c1.1,0.1,2.2,0.2,3.1,0.3c2.1,0.3,3.9,0.9,5.5,1.8C70.1,60.7,72.5,63.4,75,68.2z M26.4,67.7c-3.4,0-6.4-1-8.9-3.1   c-4.9-4.2-5.6-7.4-5.6-9c0-1.3,0.5-2.3,1.4-3c0.2-0.2,0.4-0.3,0.7-0.3c0.7,0,2.4,0.5,5.7,3.8c1.4,1.4,2.8,2.7,4.8,2.7   c1.8,0,3.5-1,5.8-3.2c0.2-0.2,0.5-0.5,0.7-0.7c1.8,2,5.1,5.4,7.8,5.8c-0.9,1.9-2.2,3.7-3.9,4.9C33.9,66.2,30.5,67.7,26.4,67.7z    M55.7,53.9C55.7,53.9,55.7,53.9,55.7,53.9L55.7,53.9c-0.8-0.1-1.4-0.7-1.4-1.4c0-1,0-1.9,0-2.9c0-0.5,0-0.9,0-1.3   c0-0.1,0-0.2,0-0.2c0-0.3,0-0.5,0-0.8c0-1,0.1-1.9,0.1-2.8c0-0.3,0-0.5,0-0.7c0,0,0,0,0,0c0-0.4,0.1-0.8,0.1-1.2c0,0,0-0.1,0-0.1   c0-0.6,0.1-1.1,0.1-1.5c0-0.3,0.1-0.6,0.1-0.8c0,0,0-0.1,0-0.1c0,0,0,0,0,0c0.1-0.7,0.7-1.3,1.5-1.3h0.4c1,0,2,0,2.9-0.1   c0.3,0,0.6-0.1,0.9-0.1c0.2,0,0.4,0,0.5,0c0.2,0,0.5-0.1,0.7-0.1c0.3,0,0.6-0.1,0.9-0.1l0.9-0.1c0.1,0,0.3-0.1,0.4-0.1   c0.5-0.1,1,0.1,1.4,0.5c0,0,0,0,0.1,0.1c0.2,0.3,0.4,0.5,0.6,0.8c0.2,0.2,0.3,0.5,0.5,0.7c0.1,0.1,0.2,0.3,0.3,0.5   c0.1,0.2,0.3,0.5,0.4,0.7c0.2,0.3,0.3,0.6,0.4,0.9c0.1,0.2,0.2,0.4,0.3,0.6c0.1,0.3,0.3,0.6,0.4,0.9c0.1,0.2,0.1,0.3,0.2,0.5   c0,0.2,0.1,0.3,0.1,0.5c0.1,0.3,0.2,0.6,0.3,0.9c0.1,0.2,0.1,0.4,0.1,0.5c0.1,0.2,0.1,0.5,0.1,0.7c0.1,0.2,0.1,0.5,0.1,0.7   c0.1,0.4,0.1,0.9,0.1,1.3c0.1,0.8,0.1,1.5,0,2.2c0,0.2,0,0.4,0,0.6c0,0.2,0,0.5-0.1,0.7c0,0.2,0,0.3-0.1,0.5c0,0.2,0,0.3-0.1,0.5   c-0.1,0.7-0.7,1.2-1.4,1.2c-0.3,0-0.5,0-0.8,0c-0.5,0-1,0-1.5,0c-0.4,0-0.7,0-1.1,0c-0.9,0-1.8,0-2.6,0c-1-0.1-2-0.3-3.1-0.3   c-0.4,0-0.8-0.1-1.2-0.1c-0.6,0-1.2,0.1-1.8,0.1C55.8,53.9,55.8,53.9,55.7,53.9z M51.6,39.6c0,0.1,0,0.1,0,0.2c0,0.2,0,0.4-0.1,0.7   c0,0.2,0,0.4-0.1,0.6c0,0.2,0,0.4-0.1,0.6c0,0.4-0.1,0.9-0.1,1.4c0,0.2,0,0.4,0,0.6c0,0.4-0.1,0.9-0.1,1.4c0,0,0,0.1,0,0.1   c0,0.4,0,0.9-0.1,1.3c0,0.1,0,0.2,0,0.3c0,0.7,0,1.3,0,2.1c0,0.9,0,1.8,0,2.8c0,0.4,0,0.9,0,1.3c0,0.4-0.3,0.6-0.7,0.6   c-0.3,0-0.6,0-0.9-0.1c-1.2-0.1-2.3-0.2-3.3-0.2c-0.1,0-0.1,0-0.2,0l0,0c1.4-1.9,2.3-4.6,2.6-8c0.3-2.6,0.1-4.8,0.1-4.9   c-0.1-0.9-0.2-1.8-0.3-2.6c0,0,0,0,0.1,0c0.4,0.1,0.8,0.2,1.2,0.2c0.1,0,0.1,0,0.2,0c0.4,0.1,0.8,0.1,1.2,0.2   c0.3,0,0.6,0.3,0.5,0.7C51.7,39.1,51.7,39.3,51.6,39.6z M73.9,34.4C73.9,34.4,73.9,34.4,73.9,34.4c0.5-0.3,1.1-0.3,1.6,0.1   c0,0,0,0,0,0c0.3,0.2,0.5,0.4,0.8,0.6c9.8,8.2,8.6,12.8,6.3,15.9c0,0.1-0.1,0.1-0.1,0.2c0,0-0.1,0.1-0.1,0.1   c-0.1,0.1-0.3,0.3-0.6,0.4c-0.1,0-0.1,0.1-0.2,0.1c0,0,0,0-0.1,0c0,0,0,0,0,0c-2.9,0.6-5.6,1.1-8.2,1.5c-0.4-0.3-0.7-0.8-0.6-1.4   c0-0.2,0-0.4,0.1-0.6c0-0.2,0-0.5,0-0.7c0-0.8,0-1.6,0-2.5c0-0.4-0.1-0.8-0.1-1.2c0-0.2,0-0.3-0.1-0.5c0-0.1,0-0.3-0.1-0.4   c0-0.2-0.1-0.4-0.1-0.5c-0.1-0.5-0.2-1-0.4-1.5c-0.1-0.3-0.1-0.5-0.2-0.8c-0.1-0.2-0.1-0.4-0.2-0.6c-0.2-0.4-0.3-0.9-0.6-1.4   c-0.1-0.2-0.2-0.4-0.3-0.5c-0.4-0.8-0.8-1.5-1.3-2.3c0,0,0,0,0,0c-0.5-0.8-0.1-1.8,0.7-2.1c0.2-0.1,0.4-0.2,0.6-0.2   c1-0.4,1.8-0.8,2.5-1.2C73.5,34.7,73.7,34.5,73.9,34.4z M58.2,28.8c1.6,0,3.1,0.1,4.6,0.4c0.3,0,0.5,0.1,0.8,0.1   c0.6,0.1,1.3,0.3,1.9,0.4c0.2,0,0.4,0.1,0.6,0.2c0.3,0.1,0.6,0.2,0.8,0.3c0.2,0.1,0.4,0.1,0.6,0.2c0,0,0,0,0,0   c0.3,0.1,0.7,0.2,1,0.4c0,0,0.1,0,0.1,0.1c0.4,0.2,0.9,0.3,1.3,0.5c0.6,0.3,0.6,1.2,0,1.5h0c-0.1,0-0.1,0.1-0.2,0.1   c-0.6,0.2-1.2,0.5-1.9,0.7c-0.2,0.1-0.5,0.2-0.7,0.2c-0.7,0.2-1.5,0.5-2.4,0.7c-2.4,0.6-5.5,1-9.2,0.9c-0.7,0-1.4-0.1-2.2-0.1   c-0.8-0.1-1.6-0.2-2.4-0.3c-0.2,0-0.5-0.1-0.7-0.1c-0.5-0.1-0.9-0.2-1.4-0.2c-0.1,0-0.2,0-0.3-0.1c-0.2,0-0.5-0.1-0.7-0.1v0   c-0.3-1.2-0.7-2.2-1.2-3.1C50,29.7,54.1,28.8,58.2,28.8z M25.9,41.3c0-7.7,3-12.8,8.4-12.8h0.3c1.2,0,2.3,0,3.4,0.1   c0.3,0,0.5,0.1,0.8,0.1c0.8,0.2,1.6,0.4,2.3,0.9c0.3,0.1,0.5,0.3,0.8,0.5l0.2,0.2c0.1,0.1,0.2,0.2,0.4,0.3c0.5,0.5,0.9,1.1,1.3,1.8   c0.2,0.4,0.4,0.8,0.5,1.2c0.4,1,0.7,2.1,0.9,3.4v0c0.2,1.1,0.3,2.2,0.4,3.5c0,0,0.1,1.2,0,2.8c0,0.2,0,0.5,0,0.7c0,0.2,0,0.3,0,0.5   c0,0.3-0.1,0.5-0.1,0.8c-0.1,0.8-0.2,1.6-0.4,2.4c-0.1,0.2-0.1,0.4-0.2,0.6c-0.1,0.4-0.3,0.8-0.4,1.1c-0.3,0.7-0.6,1.3-1,1.8   C43.4,51.6,43,52,42.9,52v0c-0.3,0.3-1.3,1-2.9,1.1c-0.2,0-0.4,0-0.7,0c-2-0.2-3.8-0.6-5.5-1.2c-0.5-0.2-1.1-0.4-1.6-0.7   c-0.4-0.2-0.7-0.4-1.1-0.6c-0.1-0.1-0.3-0.2-0.4-0.2c0,0-0.1-0.1-0.1-0.1C27.8,48.4,25.9,45.5,25.9,41.3z"/><path fill="#000000" d="M30.5,37.4c0.9,0,1.6-0.7,1.6-1.7c0-0.9-0.7-1.7-1.6-1.7c-0.9,0-1.7,0.7-1.7,1.7   C28.8,36.6,29.6,37.4,30.5,37.4z"/><path fill="#000000" d="M39.4,37.6c0.9,0,1.7-0.7,1.7-1.7c0,0,0-0.1,0-0.1c0.1,0,0.3,0.1,0.4,0.1c-0.1,0-0.3-0.1-0.4-0.1   c-0.1-0.8-0.8-1.5-1.7-1.5c-0.9,0-1.6,0.7-1.6,1.7c0,0.2,0.1,0.5,0.1,0.7C38.2,37.2,38.8,37.6,39.4,37.6z"/><path fill="#000000" d="M31.4,39.1c-0.2,0.1-0.5,0.2-0.6,0.4c-0.4,0.4-0.5,1-0.3,1.5c0.1,0.3,0.2,0.5,0.4,0.7   c0.5,0.5,1.3,1,2.3,1.2v0c0,0,0,0,0,0c0.4,0.1,0.8,0.2,1.2,0.2c1.1,0,2.3-0.3,3.4-1.3c0.7-0.6,0.8-1.6,0.2-2.3   c-0.6-0.7-1.6-0.8-2.2-0.2c-0.4,0.3-0.8,0.5-1.1,0.5c0,0,0,0,0,0c-0.8,0.1-1.5-0.3-1.7-0.5C32.6,39,31.9,38.9,31.4,39.1z"/></g></svg>
